<?xml version="1.0" encoding="UTF-8"?>
<svg width="197px" height="184px" viewBox="0 0 197 184" version="1.1" xmlns="http://www.w3.org/2000/svg" xmlns:xlink="http://www.w3.org/1999/xlink">
    <!-- Generator: Sketch 61.2 (89653) - https://sketch.com -->
    <title>chart icon</title>
    <desc>Created with Sketch.</desc>
    <g id="ChartChecker" stroke="none" stroke-width="1" fill="none" fill-rule="evenodd">
        <g id="D---Home" transform="translate(-629.000000, -216.000000)">
            <g id="chart-icon" transform="translate(592.000000, 176.000000)">
                <g id="computer-games-icon" transform="translate(59.000000, 107.000000) rotate(-30.000000) translate(-59.000000, -107.000000) translate(27.000000, 75.000000)" fill-rule="nonzero">
                    <g id="Group-4" transform="translate(7.641791, 15.283582)">
                        <g id="Group-2" transform="translate(0.940523, -23.880597)">
                            <path d="M41.9098824,54.0301373 C39.6414168,54.5551284 35.51676,51.2359164 31.936963,43.8180299 C31.7138227,43.3557015 31.245763,43.0618746 30.7326168,43.0618746 L16.2575362,43.0618746 C15.7443899,43.0618746 15.2763302,43.3557015 15.0531899,43.8180299 C11.4733929,51.2366806 7.34491527,54.5536 5.08027049,54.0301373 C2.42207348,53.0198925 2.27153019,50.5737552 3.18396004,44.2696597 L4.76313616,35.9611224 C5.81388243,30.4315224 10.6622168,26.4180537 16.290778,26.4180537 L30.9064675,26.4180537 C30.9282466,26.4195821 30.9492615,26.4203463 30.9710406,26.4211104 C36.4666347,26.5468179 41.19996,30.5591403 42.2270168,35.9611224 L43.8061929,44.2696597 C44.7186227,50.5737552 44.5680794,53.0198925 41.9098824,54.0301373 Z" id="Path" fill="#FFFFFF"></path>
                            <path d="M46.439172,43.7989254 L44.8546466,35.4617313 C43.6002466,28.8615164 37.8383362,23.9509015 31.1330466,23.7499224 C31.0898705,23.7457194 31.0459302,23.7434269 31.0016078,23.7434269 L25.0142645,23.7434269 L25.0142645,22.8776119 C25.0142645,20.7971343 26.7069212,19.1044776 28.7873989,19.1044776 L41.0142645,19.1044776 C44.5696078,19.1044776 47.4620257,16.2120597 47.4620257,12.6567164 C47.4620257,9.10137313 44.5696078,6.20895522 41.0142645,6.20895522 L16.3694884,6.20895522 C14.2890108,6.20895522 12.5963541,4.51629851 12.5963541,2.4358209 L12.5963541,1.33731343 C12.5963541,0.598734328 11.9976197,4.77824082e-12 11.2590406,4.77824082e-12 C10.5204615,4.77824082e-12 9.92172721,0.598734328 9.92172721,1.33731343 L9.92172721,2.4358209 C9.92172721,5.99116418 12.8141451,8.88358209 16.3694884,8.88358209 L41.0142645,8.88358209 C43.0947421,8.88358209 44.7873989,10.5762388 44.7873989,12.6567164 C44.7873989,14.737194 43.0947421,16.4298507 41.0142645,16.4298507 L28.7873989,16.4298507 C25.2320556,16.4298507 22.3396377,19.3222687 22.3396377,22.8776119 L22.3396377,23.7434269 L16.290778,23.7434269 C9.37916004,23.7434269 3.42582273,28.6716179 2.13550631,35.4617313 L0.55098094,43.7989254 C0.547542135,43.8180299 0.544103329,43.8375164 0.541428702,43.8566209 C-0.19141906,48.9128119 -1.02208175,54.6437731 4.22400781,56.5649194 C4.26298094,56.5790567 4.30233616,56.5912836 4.34245557,56.6019821 C8.265369,57.6374448 13.2172496,53.3897552 17.0885809,45.7365015 L29.901572,45.7365015 C33.3869929,52.6267224 37.7500735,56.7560048 41.4464078,56.7560048 C41.8556257,56.7560048 42.2572018,56.7051463 42.6480794,56.6019821 C42.6881989,56.5916657 42.7279362,56.5790567 42.7669093,56.5645373 C48.0129989,54.6441552 47.1823362,48.913194 46.4494884,43.8566209 C46.4460496,43.8375164 46.4429929,43.8180299 46.439172,43.7989254 Z M41.9098824,54.0301373 C39.6414168,54.5551284 35.51676,51.2359164 31.936963,43.8180299 C31.7138227,43.3557015 31.245763,43.0618746 30.7326168,43.0618746 L16.2575362,43.0618746 C15.7443899,43.0618746 15.2763302,43.3557015 15.0531899,43.8180299 C11.4733929,51.2366806 7.34491527,54.5536 5.08027049,54.0301373 C2.42207348,53.0198925 2.27153019,50.5737552 3.18396004,44.2696597 L4.76313616,35.9611224 C5.81388243,30.4315224 10.6622168,26.4180537 16.290778,26.4180537 L30.9064675,26.4180537 C30.9282466,26.4195821 30.9492615,26.4203463 30.9710406,26.4211104 C36.4666347,26.5468179 41.19996,30.5591403 42.2270168,35.9611224 L43.8061929,44.2696597 C44.7186227,50.5737552 44.5680794,53.0198925 41.9098824,54.0301373 Z" id="Shape" fill="#009FE3"></path>
                            <path d="M17.6345869,32.4287045 L16.8474824,32.4287045 L16.8474824,31.6416 C16.8474824,30.0616597 15.5621332,28.7763104 13.9821929,28.7763104 C12.4022526,28.7763104 11.1169033,30.0616597 11.1169033,31.6416 L11.1169033,32.4287045 L10.3297989,32.4287045 C8.74985855,32.4287045 7.46412721,33.7140537 7.46412721,35.293994 C7.46412721,36.8739343 8.74947646,38.1592836 10.3297989,38.1592836 L11.1169033,38.1592836 L11.1169033,38.9463881 C11.1169033,40.5263284 12.4022526,41.8116776 13.9821929,41.8116776 C15.5621332,41.8116776 16.8474824,40.5263284 16.8474824,38.9463881 L16.8474824,38.1592836 L17.6345869,38.1592836 C19.2145272,38.1592836 20.4998765,36.8739343 20.4998765,35.293994 C20.4998765,33.7140537 19.2145272,32.4287045 17.6345869,32.4287045 Z M17.6345869,36.2488358 L15.8922586,36.2488358 C15.3645929,36.2488358 14.9370347,36.676394 14.9370347,37.2040597 L14.9370347,38.9463881 C14.9370347,39.4729075 14.5087123,39.9012299 13.9821929,39.9012299 C13.4556735,39.9012299 13.0273511,39.4729075 13.0273511,38.9463881 L13.0273511,37.2040597 C13.0273511,36.676394 12.5997929,36.2488358 12.0721272,36.2488358 L10.3297989,36.2488358 C9.80327945,36.2488358 9.37457497,35.8205134 9.37457497,35.293994 C9.37457497,34.7674746 9.80289736,34.3391522 10.3297989,34.3391522 L12.0721272,34.3391522 C12.5997929,34.3391522 13.0273511,33.911594 13.0273511,33.3839284 L13.0273511,31.6416 C13.0273511,31.1150806 13.4556735,30.6867582 13.9821929,30.6867582 C14.5087123,30.6867582 14.9370347,31.1150806 14.9370347,31.6416 L14.9370347,33.3839284 C14.9370347,33.911594 15.3645929,34.3391522 15.8922586,34.3391522 L17.6345869,34.3391522 C18.1611063,34.3391522 18.5894287,34.7674746 18.5894287,35.293994 C18.5894287,35.8205134 18.1611063,36.2488358 17.6345869,36.2488358 Z" id="Shape" fill="#000000"></path>
                            <circle id="Oval" fill="#009FE3" cx="29.4338944" cy="35.293994" r="1.77518806"></circle>
                            <path d="M36.7608436,33.518806 C35.7819302,33.518806 34.9856556,34.3150806 34.9856556,35.293994 C34.9856556,36.2729075 35.7819302,37.0691821 36.7608436,37.0691821 C37.739375,37.0691821 38.5356496,36.2729075 38.5356496,35.293994 C38.5356496,34.3150806 37.739375,33.518806 36.7608436,33.518806 Z" id="Path" fill="#D70000"></path>
                            <path d="M33.1084496,37.1826627 C32.1299183,37.1826627 31.3336436,37.9789373 31.3336436,38.9578507 C31.3336436,39.9363821 32.1299183,40.7326567 33.1084496,40.7326567 C34.087363,40.7326567 34.8836377,39.9363821 34.8836377,38.9578507 C34.8832556,37.9789373 34.0869809,37.1826627 33.1084496,37.1826627 Z" id="Path" fill="#218234"></path>
                            <path d="M33.1084496,29.8553313 C32.1299183,29.8553313 31.3336436,30.651606 31.3336436,31.6305194 C31.3336436,32.6094328 32.1299183,33.4057075 33.1084496,33.4057075 C34.087363,33.4057075 34.8836377,32.6094328 34.8836377,31.6305194 C34.8836377,30.651606 34.0869809,29.8553313 33.1084496,29.8553313 Z" id="Path" fill="#F06C00"></path>
                        </g>
                    </g>
                </g>
                <g id="movies-icon" transform="translate(96.000000, 32.000000)">
                    <g id="Group" transform="translate(0.000000, 0.358074)">
                        <path d="M51.481528,8.04753472 L8.87628357,19.258349 C8.56631601,19.3389117 8.30288672,19.5428935 8.14734967,19.8227863 C7.99181262,20.102679 7.95774528,20.4340496 8.05308211,20.7397202 L10.3397525,28.0733937 L10.3397525,54.8294501 C10.3398308,55.4758419 10.863963,55.9998226 11.510528,55.9998871 L29.6575448,55.9998871 C29.8925753,56.0034898 33.9185003,56.0057358 34.3406462,55.9998871 L54.829214,55.9998871 C55.4757788,55.9998223 56.0001358,55.4758417 56.0001358,54.8294501 L56.0001358,27.9087949 C56.0026015,27.3029241 55.5423392,26.7951848 54.9389742,26.7383345 C54.9024076,26.7366191 54.8657806,26.7366191 54.829214,26.7383345 L20.4925695,26.7383345 L54.4084665,17.8135632 C54.7184327,17.7330004 54.981861,17.5290195 55.1373979,17.2491281 C55.2929349,16.9692368 55.3270032,16.6378677 55.2316682,16.3321978 L52.8901172,8.8339256 C52.7242259,8.28177842 52.1809025,7.9325945 51.6095821,8.01094942 C51.5662376,8.02070579 51.5234838,8.03292065 51.481528,8.04753472 Z" id="Path" fill="#FFFFFF"></path>
                        <path d="M51.481528,8.04753472 L8.87628357,19.258349 C8.56631601,19.3389117 8.30288672,19.5428935 8.14734967,19.8227863 C7.99181262,20.102679 7.95774528,20.4340496 8.05308211,20.7397202 L10.3397525,28.0733937 L10.3397525,54.8294501 C10.3398308,55.4758419 10.863963,55.9998226 11.510528,55.9998871 L45.6575448,55.9998871 C46.0796907,56.0057358 46.4722974,55.7839341 46.6850772,55.4193866 C46.8978571,55.054839 46.8978571,54.6040026 46.6850772,54.2394551 C46.4722974,53.8749075 46.0796907,53.6531058 45.6575448,53.6589545 L12.681303,53.6589545 L12.681303,36.1020475 L53.6584385,36.1020475 L53.6584385,53.6589545 L18.3406462,53.6589545 C17.9185003,53.6531058 17.5258936,53.8749075 17.3131138,54.2394551 C17.1003339,54.6040026 17.1003339,55.054839 17.3131138,55.4193866 C17.5258936,55.7839341 17.9185003,56.0057358 18.3406462,55.9998871 L54.829214,55.9998871 C55.4757788,55.9998223 56.0000955,55.4758417 56.0000955,54.8294501 L56.0000955,27.9087949 C56.0026015,27.3029241 55.5423392,26.7951848 54.9389742,26.7383345 C54.9024076,26.7366191 54.8657806,26.7366191 54.829214,26.7383345 L20.4925695,26.7383345 L54.4084665,17.8135632 C54.7184327,17.7330004 54.981861,17.5290195 55.1373979,17.2491281 C55.2929349,16.9692368 55.3270032,16.6378677 55.2316682,16.3321978 L52.8901172,8.8339256 C52.7242259,8.28177842 52.1809025,7.9325945 51.6095821,8.01094942 C51.5662376,8.02070579 51.5234838,8.03292065 51.481528,8.04753472 Z M50.8636363,10.5 L52.5,15.7774903 L46.0272726,17.5 L41.5,12.973821 L50.8636363,10.5 L50.8636363,10.5 Z M38.8757144,14 L43.5,18.386611 L35.1242856,20.5 L30.5,16.113389 L38.8757144,14 Z M27.8757144,16.5 L32.5,20.886611 L24.1242856,23 L19.5,18.6133833 L27.8757144,16.5 Z M16.9727274,19.5 L21.5,24.0143586 L12.1363637,26.5 L10.5,21.2180171 L16.9727274,19.5 L16.9727274,19.5 Z M12.5,29 L20.5,29 L17.7350236,33.5 L12.5,33.5 L12.5,29 Z M23.2134588,29 L33,29 L30.2865412,33.5 L20.5,33.5 L23.2134588,29 Z M35.7173913,29 L45.5,29 L42.7826087,33.5 L33,33.5 L35.7173913,29 Z M48.252887,29 L53.5,29 L53.5,33.5 L45.5,33.5 L48.252887,29 Z" id="Shape" fill="#D70000" fill-rule="nonzero"></path>
                    </g>
                </g>
                <g id="music-icon" transform="translate(202.000000, 107.000000) rotate(-330.000000) translate(-202.000000, -107.000000) translate(170.000000, 75.000000)">
                    <g id="Group-3" transform="translate(9.500000, 8.000000)">
                        <path d="M9.24521951,34.5375627 C8.8530072,34.5375627 8.46079488,34.5654814 8.06858257,34.6269028 C6.2677204,34.9005068 4.66572644,35.7492379 3.56642714,37.0223344 C2.51132077,38.2451771 2.04729494,39.7081213 2.25721139,41.1487306 C2.46712784,42.5893398 3.33441422,43.8568525 4.69887114,44.7111673 C6.11856924,45.6045684 7.89733494,45.9507613 9.692673,45.6771572 C13.2612526,45.1411166 15.5703336,42.5167509 15.5703336,38.9934005 L15.5703336,37.1619283 C13.5098379,35.4197962 11.3830528,34.5375627 9.24521951,34.5375627 Z" id="Path" fill="#FFFFFF"></path>
                        <polygon id="Path-4" fill="#FFFFFF" points="16.5876912 15.6518855 16.9290492 5.69067384 44.2347665 1.41720432 45.0041651 11.0072142"></polygon>
                        <path d="M37.5775079,30.2977487 C37.0748133,30.2977487 36.6328839,30.336835 36.2738163,30.3926726 C34.4729541,30.6662767 32.8709602,31.5150077 31.7716609,32.7881042 C30.7165545,34.0109469 30.2525287,35.4738912 30.4624451,36.9145004 C30.6723616,38.3551096 31.539648,39.6226224 32.9041049,40.4769371 C34.323803,41.3703382 36.0970446,41.7109474 37.9034309,41.4429271 C41.4720105,40.9068864 43.7810914,38.2825208 43.7810914,34.7591703 L43.7810914,32.4865813 C41.4222934,30.7165305 39.1739778,30.2977487 37.5775079,30.2977487 Z" id="Path" fill="#FFFFFF"></path>
                        <path d="M8.4994637,48 C6.70964976,48 4.99164935,47.5253807 3.53328244,46.6096446 C1.61088969,45.3979694 0.384535692,43.5776647 0.0751851343,41.4781722 C-0.234165423,39.3786797 0.417680394,37.2736034 1.90919201,35.5538064 C3.35651069,33.8842631 5.4280546,32.7730956 7.74818378,32.4213189 C10.3887117,32.0248722 13.0623844,32.7005067 15.5758577,34.3812175 L15.5758577,5.44060664 C15.5758577,4.88781473 15.9735941,4.41877916 16.5149576,4.33502281 L44.223929,0.0131951492 C44.5443277,-0.0370586609 44.8647265,0.0578652026 45.1133118,0.270047956 C45.356373,0.48223071 45.5,0.789337327 45.5,1.11877897 L45.5,34.6659891 C45.5,39.2893396 42.3788738,42.8629439 37.7386155,43.5609134 C35.4184863,43.9071064 33.1149295,43.4548221 31.2477779,42.2822332 C29.3253851,41.070558 28.0990312,39.2502533 27.7896806,37.1507608 C27.48033,35.0512683 28.1321759,32.946192 29.6236875,31.226395 C31.0710061,29.5568517 33.1425501,28.4456841 35.4682034,28.0939075 C37.0867697,27.8538059 40.0587447,27.8035521 43.2958773,29.7187807 L43.2958773,2.41979428 L17.7965528,6.39542903 L17.7965528,36.6426389 C17.7965528,36.6426389 17.7965528,36.6482227 17.7965528,36.6482227 L17.7965528,38.9878167 C17.7965528,43.6111673 14.6754266,47.1847715 10.0351683,47.8827411 C9.51037713,47.9609137 9.00215836,48 8.4994637,48 Z M9.24521951,34.5375627 C8.8530072,34.5375627 8.46079488,34.5654814 8.06858257,34.6269028 C6.2677204,34.9005068 4.66572644,35.7492379 3.56642714,37.0223344 C2.51132077,38.2451771 2.04729494,39.7081213 2.25721139,41.1487306 C2.46712784,42.5893398 3.33441422,43.8568525 4.69887114,44.7111673 C6.11856924,45.6045684 7.89733494,45.9507613 9.692673,45.6771572 C13.2612526,45.1411166 15.5703336,42.5167509 15.5703336,38.9934005 L15.5703336,37.1619283 C13.5098379,35.4197962 11.3830528,34.5375627 9.24521951,34.5375627 Z M37.0867697,30.2101512 C36.584075,30.2101512 36.1421456,30.2492375 35.783078,30.3050751 C33.9822159,30.5786792 32.3802219,31.4274102 31.2809226,32.7005067 C30.2258162,33.9233494 29.7617904,35.3862937 29.9717068,36.8269029 C30.1816233,38.2675121 31.0489097,39.5350249 32.4133666,40.3893397 C33.8330647,41.2827407 35.6063063,41.6233499 37.4126926,41.3553296 C40.9812722,40.8192889 43.2903532,38.1949233 43.2903532,34.6715728 L43.2903532,32.3989839 C40.9315552,30.628933 38.6832395,30.2101512 37.0867697,30.2101512 Z" id="Shape" fill="#218234" fill-rule="nonzero"></path>
                        <path d="M16.5576032,16 C16.2845507,16 16.0449332,15.8008989 16.0059257,15.5243696 C15.9613457,15.2201874 16.1731007,14.9436581 16.4795882,14.8994134 L44.3643818,11.0058811 C44.6708693,10.9616364 44.9494943,11.1717987 44.9940743,11.4759809 C45.0386543,11.7801631 44.8268993,12.0566924 44.5204118,12.1009371 L16.6356182,15.9944694 C16.6077557,15.9944694 16.5854657,16 16.5576032,16 Z" id="Path" fill="#218234" fill-rule="nonzero"></path>
                    </g>
                </g>
                <polygon id="Path-3" fill="#FFFFFF" points="128.25 222.118164 77.9746094 210.165039 77.9746094 179 66.5729351 179 77.9746094 155 128 152.5 177.640625 155 190.729952 179 177.640625 179 177.640625 210.165039"></polygon>
                <path d="M191.786249,177.829876 L180.093274,154.454067 C180.083824,154.435178 180.067625,154.420337 180.058176,154.401449 C179.98798,154.271928 179.906985,154.150502 179.811141,154.03987 C179.800342,154.027728 179.793592,154.014236 179.782793,154.003442 C179.67615,153.886064 179.554657,153.786225 179.423715,153.69583 C179.387267,153.670196 179.34947,153.649958 179.311672,153.628372 C179.207729,153.56631 179.098385,153.515041 178.983642,153.471867 C178.941795,153.457026 178.901298,153.439487 178.85945,153.425995 C178.70421,153.380123 178.54492,153.346394 178.37753,153.338299 L128.094494,151 C128.062096,150.998829 128.032398,151.005575 128,151.005575 C127.968952,151.005575 127.937904,150.998829 127.906856,151 L77.6251699,153.33695 C77.4564303,153.345045 77.2971402,153.378774 77.1432497,153.424646 C77.1000524,153.438138 77.0595549,153.454328 77.0190574,153.470518 C76.9043145,153.513692 76.7949713,153.56496 76.6910277,153.627022 C76.6532301,153.649958 76.6140825,153.670196 76.5789847,153.694481 C76.4480428,153.784876 76.3252004,153.884715 76.2199069,154.002093 C76.2104575,154.012887 76.202358,154.027728 76.1915587,154.038521 C76.0957146,154.149153 76.0160695,154.270579 75.944524,154.4001 C75.9350746,154.418988 75.9188756,154.433829 75.9094261,154.452718 L64.2137505,177.829876 C63.9073195,178.442402 63.931618,179.168258 64.2785465,179.759197 C64.625475,180.350135 65.2464365,180.725206 65.9308442,180.757586 L75.6934395,181.210909 L75.6934395,210.289682 C75.6934395,211.231406 76.3427493,212.047657 77.2593425,212.260827 L127.541028,223.947382 C127.693569,223.982461 127.847459,224 128,224 C128.152541,224 128.306431,223.982461 128.458972,223.947382 L178.742007,212.260827 C179.658601,212.047657 180.30791,211.231406 180.30791,210.289682 L180.30791,181.210909 L190.069156,180.757586 C190.753563,180.725206 191.374525,180.350135 191.721454,179.759197 C192.068382,179.168258 192.092681,178.442402 191.786249,177.829876 Z M78.8278011,157.151752 L103.663434,155.993535 L125,155 L115.02284,179 L77.9425115,177.271521 C77.8121621,177.245662 77.6790971,177.230691 77.5406008,177.230691 C77.490362,177.230691 77.4428388,177.241579 77.3926,177.245662 L69,176.855053 L78.8278011,157.151752 Z M80,181.164629 L116.286382,182.850616 C116.317274,182.851958 116.349509,182.851958 116.380402,182.851958 C117.190318,182.851958 117.925018,182.366029 118.239313,181.612973 L126,163 L126,219 L80,208.309555 L80,181.164629 Z M176,208.308469 L130,219 L130,163 L137.76046,181.613869 C138.074747,182.366907 138.809425,182.852825 139.619317,182.852825 C139.650209,182.852825 139.682443,182.852825 139.713335,182.851483 L175.998657,181.165536 L175.998657,208.308469 L176,208.308469 Z M179.00097,177.227969 C178.828524,177.180333 178.64929,177.146308 178.461908,177.146308 C178.203918,177.146308 177.959507,177.199388 177.73139,177.287853 L140.977402,179 L131,155 L150.37908,155.903709 L177.173318,157.151752 L187,176.856414 L179.00097,177.227969 Z" id="box-icon" fill="#F06C00" fill-rule="nonzero"></path>
                <g id="book-icon" transform="translate(96.000000, 107.000000)">
                    <g id="Group" transform="translate(12.500000, 8.500000)">
                        <path d="M1.5,42.5 L1.5,3.92822266 C2.04901961,2.08200903 3.04299747,1.10677415 4.48193359,1.00251802 C5.92086972,0.898261892 17.1469439,0.988109761 38.1601562,1.27206163 L38.1601562,45.7626953 C17.0065063,45.8782596 5.78043212,45.8782596 4.48193359,45.7626953 C3.18343507,45.647131 2.1894572,44.5595659 1.5,42.5 Z" id="Path-2" fill="#FFFFFF"></path>
                        <path d="M1.16176471,43.5 C0.519696078,43.5 0,42.9787768 0,42.3348214 L0,5.04910714 C0,2.26510714 2.25847059,0 5.03431373,0 L38.3382353,0 C38.9803039,0 39.5,0.521223214 39.5,1.16517857 L39.5,39.0979554 C39.5,39.7419107 38.9803039,40.2631339 38.3382353,40.2631339 C37.6961667,40.2631339 37.1764706,39.7419107 37.1764706,39.0979554 L37.1764706,2.33035714 L5.03431373,2.33035714 C3.5395098,2.33035714 2.32352941,3.54991071 2.32352941,5.04910714 L2.32352941,42.3348214 C2.32352941,42.9787768 1.80383333,43.5 1.16176471,43.5 Z" id="Path" fill="#4C4C4C" fill-rule="nonzero"></path>
                        <path d="M38.3382353,47 L5.03431373,47 C2.25847059,47 0,44.7569231 0,42 C0,39.2430769 2.25847059,37 5.03431373,37 L38.3382353,37 C38.9803039,37 39.5,37.5161538 39.5,38.1538462 L39.5,45.8461538 C39.5,46.4838462 38.9803039,47 38.3382353,47 Z M5.03431373,39.3076923 C3.5395098,39.3076923 2.32352941,40.5153846 2.32352941,42 C2.32352941,43.4846154 3.5395098,44.6923077 5.03431373,44.6923077 L37.1764706,44.6923077 L37.1764706,39.3076923 L5.03431373,39.3076923 Z" id="Shape" fill="#4C4C4C" fill-rule="nonzero"></path>
                        <path d="M8.75,39 C8.05916667,39 7.5,38.48351 7.5,37.8454023 L7.5,1.15459767 C7.5,0.516490023 8.05916667,0 8.75,0 C9.44083333,0 10,0.516490023 10,1.15459767 L10,37.8454023 C10,38.48351 9.44083333,39 8.75,39 Z" id="Path" fill="#4C4C4C" fill-rule="nonzero"></path>
                    </g>
                </g>
                <g id="stars" transform="translate(59.051932, 47.220705)" fill="#FFFFFF" fill-rule="nonzero" stroke="#F7B500">
                    <path d="M16.6995444,6.94511321 L12.0384535,6.2680223 L9.95408982,2.0440223 C9.87263528,1.88038594 9.70899891,1.77929503 9.52718073,1.77929503 C9.34536255,1.77929503 9.18172619,1.88111321 9.10099891,2.0440223 L7.01663528,6.2680223 L2.3548171,6.94511321 C2.17445346,6.97129503 2.02754437,7.09493139 1.97154437,7.26874958 C1.91554437,7.44184048 1.96136255,7.62874958 2.09154437,7.7560223 L5.46463528,11.0440223 L4.66827164,15.6869314 C4.63772619,15.8665678 4.70972619,16.0447496 4.85736255,16.1516587 C4.94099891,16.2120223 5.03845346,16.2425678 5.135908,16.2425678 C5.21154437,16.2425678 5.28718073,16.2243859 5.35772619,16.187295 L9.52718073,13.995295 L13.6966353,16.187295 C13.8544535,16.2702041 14.0537262,16.2556587 14.1969989,16.1509314 C14.343908,16.0440223 14.4166353,15.8658405 14.3860898,15.6862041 L13.5897262,11.043295 L16.9628171,7.75529503 C17.0929989,7.6280223 17.1395444,7.44184048 17.0828171,7.2680223 C17.0268171,7.09565867 16.8791807,6.97129503 16.6995444,6.94511321 Z" id="Path" transform="translate(9.527339, 9.010931) rotate(-15.000000) translate(-9.527339, -9.010931) "></path>
                    <path d="M158.751476,108.165818 L154.090386,107.488727 L152.006022,103.264727 C151.924567,103.101091 151.760931,103 151.579113,103 C151.397295,103 151.233658,103.101818 151.152931,103.264727 L149.068567,107.488727 L144.406749,108.165818 C144.226386,108.192 144.079476,108.315636 144.023476,108.489455 C143.967476,108.662545 144.013295,108.849455 144.143476,108.976727 L147.516567,112.264727 L146.720204,116.907636 C146.689658,117.087273 146.761658,117.265455 146.909295,117.372364 C146.992931,117.432727 147.090386,117.463273 147.18784,117.463273 C147.263476,117.463273 147.339113,117.445091 147.409658,117.408 L151.579113,115.216 L155.748567,117.408 C155.906386,117.490909 156.105658,117.476364 156.248931,117.371636 C156.39584,117.264727 156.468567,117.086545 156.438022,116.906909 L155.641658,112.264 L159.014749,108.976 C159.144931,108.848727 159.191476,108.662545 159.134749,108.488727 C159.078749,108.316364 158.931113,108.192 158.751476,108.165818 Z" id="Path" transform="translate(151.579271, 110.231636) rotate(-330.000000) translate(-151.579271, -110.231636) "></path>
                    <path d="M127.751476,28.1658182 L123.090386,27.4887273 L121.006022,23.2647273 C120.924567,23.1010909 120.760931,23 120.579113,23 C120.397295,23 120.233658,23.1018182 120.152931,23.2647273 L118.068567,27.4887273 L113.406749,28.1658182 C113.226386,28.192 113.079476,28.3156364 113.023476,28.4894545 C112.967476,28.6625455 113.013295,28.8494545 113.143476,28.9767273 L116.516567,32.2647273 L115.720204,36.9076364 C115.689658,37.0872727 115.761658,37.2654545 115.909295,37.3723636 C115.992931,37.4327273 116.090386,37.4632727 116.18784,37.4632727 C116.263476,37.4632727 116.339113,37.4450909 116.409658,37.408 L120.579113,35.216 L124.748567,37.408 C124.906386,37.4909091 125.105658,37.4763636 125.248931,37.3716364 C125.39584,37.2647273 125.468567,37.0865455 125.438022,36.9069091 L124.641658,32.264 L128.014749,28.976 C128.144931,28.8487273 128.191476,28.6625455 128.134749,28.4887273 C128.078749,28.3163636 127.931113,28.192 127.751476,28.1658182 Z" id="Path" transform="translate(120.579271, 30.231636) rotate(-345.000000) translate(-120.579271, -30.231636) "></path>
                    <path d="M30.7514765,78.1658182 L26.0903856,77.4887273 L24.0060219,73.2647273 C23.9245674,73.1010909 23.760931,73 23.5791128,73 C23.3972947,73 23.2336583,73.1018182 23.152931,73.2647273 L21.0685674,77.4887273 L16.4067492,78.1658182 C16.2263856,78.192 16.0794765,78.3156364 16.0234765,78.4894545 C15.9674765,78.6625455 16.0132947,78.8494545 16.1434765,78.9767273 L19.5165674,82.2647273 L18.7202037,86.9076364 C18.6896583,87.0872727 18.7616583,87.2654545 18.9092947,87.3723636 C18.992931,87.4327273 19.0903856,87.4632727 19.1878401,87.4632727 C19.2634765,87.4632727 19.3391128,87.4450909 19.4096583,87.408 L23.5791128,85.216 L27.7485674,87.408 C27.9063856,87.4909091 28.1056583,87.4763636 28.248931,87.3716364 C28.3958401,87.2647273 28.4685674,87.0865455 28.4380219,86.9069091 L27.6416583,82.264 L31.0147492,78.976 C31.144931,78.8487273 31.1914765,78.6625455 31.1347492,78.4887273 C31.0787492,78.3163636 30.9311128,78.192 30.7514765,78.1658182 Z" id="Path" transform="translate(23.579271, 80.231636) rotate(-45.000000) translate(-23.579271, -80.231636) "></path>
                </g>
            </g>
        </g>
    </g>
</svg>